<svg width="14" height="14" viewBox="0 0 14 14" fill="none" xmlns="http://www.w3.org/2000/svg">
<path d="M7 0.809018L8.33383 4.91413L8.38996 5.08688H8.5716H12.888L9.39595 7.62398L9.24901 7.73075L9.30513 7.90349L10.639 12.0086L7.14695 9.47151L7 9.36475L6.85305 9.47151L3.36103 12.0086L4.69487 7.90349L4.75099 7.73075L4.60405 7.62398L1.11203 5.08688H5.4284H5.61004L5.66617 4.91413L7 0.809018Z" stroke="#EB8A2F" stroke-width="0.5"/>
<mask id="mask0_1645_18438" style="mask-type:alpha" maskUnits="userSpaceOnUse" x="0" y="0" width="14" height="13">
<path d="M7 0.809018L8.33383 4.91413L8.38996 5.08688H8.5716H12.888L9.39595 7.62398L9.24901 7.73075L9.30513 7.90349L10.639 12.0086L7.14695 9.47151L7 9.36475L6.85305 9.47151L3.36103 12.0086L4.69487 7.90349L4.75099 7.73075L4.60405 7.62398L1.11203 5.08688H5.4284H5.61004L5.66617 4.91413L7 0.809018Z" fill="#EB8A2F" stroke="#EB8A2F" stroke-width="0.5"/>
</mask>
<g mask="url(#mask0_1645_18438)">
<rect x="-2" y="-1" width="9" height="15" fill="#EB8A2F"/>
</g>
</svg>
