<svg width="200" height="60" viewBox="0 0 200 60" fill="none" xmlns="http://www.w3.org/2000/svg">
<path d="M28.3553 53.2713C27.3431 53.2713 26.4336 53.154 25.6121 52.9339C24.7906 52.7139 24.0718 52.4205 23.441 52.0684C22.8249 51.7017 22.3115 51.3203 21.886 50.8948C21.4753 50.4694 21.1526 50.0733 20.9618 49.6919H20.7565V52.6552H14.918V42.4011H20.7565V44.5429C20.7565 46.3473 21.3873 47.6235 22.6635 48.3717C23.9398 49.1198 25.6855 49.4866 27.9006 49.4866C30.2037 49.4866 31.9347 49.0171 33.0496 48.0929C34.1792 47.1688 34.7366 45.9512 34.7366 44.4402C34.7366 43.7214 34.6486 43.0759 34.4579 42.5478C34.2819 42.0197 33.9591 41.5503 33.5337 41.1836C33.0936 40.7875 32.5068 40.4647 31.7733 40.186C31.0252 39.8926 30.1157 39.6432 29.0008 39.4085L26.7417 38.9098C25.0253 38.5724 23.4704 38.1029 22.0327 37.5162C20.6098 36.9294 19.3922 36.1665 18.3947 35.2277C17.3825 34.2888 16.605 33.1593 16.0475 31.8537C15.5048 30.5481 15.226 28.9931 15.226 27.2181C15.226 25.7218 15.4901 24.3282 16.0329 23.0813C16.561 21.8197 17.3385 20.7341 18.336 19.8246C19.3482 18.9151 20.5951 18.2109 22.0914 17.7122C23.5877 17.2134 25.2747 16.9494 27.1964 16.9494C28.238 16.9494 29.1622 17.0667 29.9837 17.2868C30.8052 17.5068 31.524 17.7855 32.1401 18.1229C32.7709 18.4603 33.2843 18.8564 33.6804 19.2818C34.0765 19.6926 34.3845 20.1033 34.5899 20.4701H34.7806V17.5655H40.6191V27.8195H34.7806V25.6191C34.7806 23.8587 34.1645 22.5972 32.9322 21.849C31.6853 21.1009 30.0717 20.7341 28.0913 20.7341C25.8175 20.7341 24.1452 21.2035 23.0889 22.1571C22.0327 23.0959 21.5046 24.2402 21.5046 25.5751C21.5046 26.3379 21.622 26.9834 21.8567 27.5115C22.0914 28.0543 22.4728 28.509 23.0009 28.9198C23.5144 29.3158 24.1892 29.6532 25.0253 29.932C25.8615 30.2254 26.8884 30.5041 28.0913 30.7535L30.2037 31.1642C31.9494 31.5456 33.519 32.015 34.9126 32.6018C36.3063 33.1886 37.4798 33.9368 38.4334 34.8463C39.3869 35.7411 40.1204 36.812 40.6191 38.0296C41.1179 39.2618 41.3673 40.6848 41.3673 42.2984C41.3673 43.8681 41.0739 45.3204 40.4724 46.67C39.871 48.0049 39.0055 49.1785 37.8759 50.1467C36.761 51.1149 35.3967 51.8777 33.7831 52.4351C32.1694 52.9926 30.3651 53.2713 28.3553 53.2713ZM45.2987 49.3399H48.3207V20.118L45.2987 19.4725V16.5973L55.9635 14.4409V30.4894H56.3156C56.785 29.1398 57.6065 28.0102 58.7948 27.0861C59.983 26.1619 61.5673 25.7071 63.5477 25.7071C66.775 25.7071 69.0342 26.5139 70.3691 28.1423C71.6894 29.7706 72.3495 32.2058 72.3495 35.4624V49.3399H75.3714V52.6552H61.9487V49.3399H64.7066V35.7118C64.7066 33.9368 64.3986 32.6752 63.7824 31.9124C63.1516 31.1642 62.1101 30.7828 60.6285 30.7828C60.071 30.7828 59.4989 30.8561 58.9561 31.0175C58.3987 31.1642 57.8999 31.3989 57.4452 31.7217C56.9904 32.0297 56.6237 32.4405 56.3596 32.9246C56.0956 33.4087 55.9635 34.0101 55.9635 34.7143V49.3399H58.7214V52.6552H45.2987V49.3399ZM91.464 53.2713C89.3809 53.2713 87.5472 52.9192 85.9482 52.2298C84.3639 51.5403 83.0143 50.5868 81.9287 49.3692C80.8432 48.1369 80.007 46.6847 79.4496 44.9977C78.8775 43.296 78.5841 41.4476 78.5841 39.4379C78.5841 37.3254 78.8775 35.4184 79.4642 33.7021C80.051 31.9857 80.8872 30.5481 81.9874 29.3745C83.073 28.201 84.3786 27.3061 85.9042 26.6606C87.4298 26.0298 89.1315 25.7071 91.0092 25.7071C92.8869 25.7071 94.5739 25.9858 96.0849 26.558C97.5959 27.1301 98.8721 27.9369 99.9284 28.9931C100.985 30.0347 101.806 31.3256 102.378 32.8219C102.95 34.3182 103.229 36.0052 103.229 37.8389V39.5406H86.6817V41.5796C86.6817 43.8388 87.2685 45.5551 88.442 46.714C89.6156 47.8582 91.1706 48.4303 93.1217 48.4303C94.926 48.4303 96.393 48.0196 97.4932 47.1834C98.6081 46.3619 99.3856 45.3497 99.855 44.1615L102.628 45.8192C102.32 46.6553 101.894 47.5208 101.322 48.3863C100.75 49.2518 100.016 50.0587 99.1069 50.7775C98.1973 51.4963 97.1118 52.0977 95.8355 52.5672C94.5593 53.0366 93.107 53.2713 91.464 53.2713ZM86.6817 36.4159H95.3368V35.7118C95.3368 33.2766 94.9554 31.575 94.1779 30.5921C93.4004 29.6092 92.3442 29.1251 91.0092 29.1251C89.6743 29.1251 88.6181 29.6092 87.8406 30.5921C87.0631 31.575 86.6817 33.2766 86.6817 35.7118V36.4159Z" fill="#E5097F"/>
<path d="M122.3 49.2225V40.5381L121.727 40.9782L121.082 41.3743L120.378 41.8143L119.542 42.2104C118.808 42.5478 118.221 42.7385 117.796 42.7825L116.182 42.9879C113.483 42.9879 111.297 41.9757 109.61 39.9513C107.938 37.9416 107.102 35.5798 107.102 32.8659C107.102 28.4943 108.877 25.6778 112.427 24.4309C113.615 24.0054 114.906 23.7854 116.27 23.7854C117.092 23.7854 117.825 23.8734 118.5 24.0495C119.146 24.2108 119.85 24.4895 120.583 24.8856L121.331 25.3404L122.3 25.9712L119.175 29.1985L118.588 28.7437L118.148 28.421L117.062 27.7755L116.3 27.5261C115.816 27.5261 115.375 27.6582 114.979 27.9076C114.583 28.1716 114.173 28.5384 113.791 29.0078L113.102 30.6801L112.838 32.4845V33.3793C112.838 34.4209 113.219 35.4477 113.997 36.4746C114.422 37.0761 115.038 37.5602 115.83 37.9269C116.622 38.2936 117.429 38.4697 118.251 38.4697C118.676 38.4697 119.014 38.4257 119.278 38.3377L120.378 37.7655L121.331 36.988L122.3 35.8291V20.5728H58.2227L60.3057 16.2599H147.164V20.5728H128.871V26.6166L130.221 25.6631L131.585 24.8123L133.507 24.0495L135.576 23.7854C140.343 23.7854 142.72 26.9394 142.72 33.262V35.125C142.632 35.5504 142.588 35.8732 142.588 36.0932C142.588 36.5186 142.441 37.4135 142.147 38.7924L142.015 39.3792L141.825 40.0247L135.062 45.0417L135.576 43.296L135.898 41.8143L136.47 38.2203L136.734 35.0663L136.544 32.7339C136.236 31.0615 135.678 30.0347 134.857 29.6532C134.387 29.3452 133.874 29.1985 133.316 29.1985C132.671 29.1985 131.893 29.5652 130.999 30.2987L129.84 31.5163L128.871 32.9392V45.3644L122.3 49.2225Z" fill="#434242"/>
<path d="M126.453 13.7807L122.316 9.64389L126.483 5.47772L130.766 9.61455L126.453 13.7807Z" fill="#434242"/>
<path d="M138.304 57.6429C136.544 58.9485 134.519 59.5939 132.245 59.5939C131.13 59.5939 129.869 59.4766 128.461 59.2125C125.923 58.7871 123.312 57.8776 120.598 56.5133C119.483 55.9705 118.588 55.4131 117.898 54.8263L121.683 51.4229L123.576 52.8312L125.043 53.7994C126.128 54.5182 127.463 55.1344 129.047 55.6478C130.426 56.0439 131.703 56.2346 132.891 56.2346C133.8 56.2346 134.534 55.9118 135.121 55.2664C135.443 54.8996 135.693 54.4889 135.869 54.0195C135.942 53.7701 135.986 53.374 135.986 52.8312L135.649 51.8044C135.399 51.1882 134.945 50.7775 134.299 50.5574L133.17 50.3961C132.583 50.3961 132.099 50.4841 131.703 50.6601L129.649 51.5843L128.725 52.0684L127.419 52.8312V47.9609L128.299 47.6382L129.795 47.1394L132.231 46.5526L134.226 46.3913C134.945 46.3179 135.707 46.4646 136.544 46.8167C138.113 47.5062 139.36 48.6064 140.255 50.1174C140.622 50.8802 140.783 51.6723 140.739 52.5085C140.666 54.7383 139.859 56.4546 138.304 57.6429Z" fill="#434242"/>
<path d="M167.131 28.685C168.158 31.0028 168.671 33.3353 168.671 35.6971C168.671 37.3401 168.437 38.8364 167.967 40.2154C166.896 43.34 165.151 45.4671 162.745 46.582C161.513 47.1394 160.178 47.4181 158.755 47.4181C155.234 47.4181 152.491 45.5991 150.511 41.9464C149.909 40.8315 149.337 39.3499 148.779 37.5015C148.515 36.7387 148.149 34.8023 147.679 31.707L147.298 26.1765L153.474 24.6949C153.474 26.4993 153.591 28.3183 153.796 30.1667L154.251 34.0248C154.589 36.9 155.307 39.2472 156.378 41.0515C157.229 42.5918 158.271 43.3693 159.474 43.3693C161.102 43.3693 162.114 42.4451 162.496 40.5968L162.686 38.6017V37.1788C162.598 36.9294 162.51 36.6066 162.422 36.2252L161.85 33.7021L161.014 31.4576C160.794 30.9442 160.471 30.4014 160.046 29.8439L156.892 30.9442L158.505 25.9858L160.882 25.5311L162.628 25.135L164.168 24.9443L165.972 24.8856L173.058 24.6949V20.5728H143.234V16.2599H188.901V20.5728H179.63V45.3644L173.058 49.2225V28.685H167.131Z" fill="#434242"/>
<path fill-rule="evenodd" clip-rule="evenodd" d="M0 15.7318L17.1781 0.974182L39.7546 2.77854L31.657 9.62925L10.7235 16.3919L0 15.7318Z" fill="#393D48"/>
<path d="M30.9805 7.39945L33.3716 15.1597C33.1956 14.4409 28.5747 14.9103 23.0589 16.2306C17.7778 17.5068 12.6581 21.3209 12.4674 22.0837L10.9418 17.0227L9.98828 14.2208C12.3207 11.3749 20.0076 5.94716 30.9805 7.39945Z" fill="url(#paint0_linear_544_3852)"/>
<path fill-rule="evenodd" clip-rule="evenodd" d="M25.3203 6.31394L28.3716 15.2331L31.5549 15.5705L28.4743 6.07922L25.3203 6.31394Z" fill="#EBECEC" fill-opacity="0.188235"/>
<path fill-rule="evenodd" clip-rule="evenodd" d="M22.957 6.48999L26.3017 15.8345L27.3579 15.5265L23.9399 6.56334L22.957 6.48999Z" fill="#EBECEC" fill-opacity="0.188235"/>
<path d="M3.40207 14.3675L5.17709 19.4432L4.69299 19.6045L2.91797 14.5435L3.40207 14.3675Z" fill="#393D48"/>
<path fill-rule="evenodd" clip-rule="evenodd" d="M5.17665 19.3552C5.77811 19.3112 6.29154 19.766 6.33555 20.3674C6.37956 20.9689 5.9248 21.497 5.32335 21.541C4.7219 21.5703 4.19379 21.1303 4.14978 20.5141C4.12044 19.9127 4.5752 19.3992 5.17665 19.3552Z" fill="#393D48"/>
<path fill-rule="evenodd" clip-rule="evenodd" d="M8.49198 25.5604L5.88079 26.4699L5.25 20.4407L8.49198 25.5604Z" fill="#393D48"/>
<path fill-rule="evenodd" clip-rule="evenodd" d="M194.781 10.5681C193.241 10.6854 192.141 11.3749 191.422 12.167C190.659 12.9885 190.058 14.1915 190.131 15.7904C190.204 17.2721 190.982 18.4896 191.715 19.1351C192.728 20.03 193.901 20.4994 195.339 20.4407C196.615 20.382 197.921 19.7366 198.698 18.8417C198.801 18.739 198.889 18.6363 198.977 18.519C199.696 17.5948 200.062 16.4506 199.989 15.2183C199.886 13.1793 198.551 11.5803 196.894 10.9201C196.292 10.6707 195.515 10.5241 194.781 10.5681ZM194.811 11.0962C193.417 11.1989 192.449 11.815 191.818 12.5191C191.129 13.2673 190.586 14.3528 190.659 15.7611C190.777 18.0936 192.83 20.074 195.324 19.9126C195.97 19.8686 196.556 19.7072 197.055 19.4432C199.226 18.3136 200.106 15.7024 199.006 13.502C198.625 12.7832 198.067 12.1817 197.422 11.771C197.202 11.6389 196.952 11.5069 196.688 11.4042C196.131 11.1842 195.485 11.0522 194.811 11.0962Z" fill="black"/>
<path fill-rule="evenodd" clip-rule="evenodd" d="M197.673 17.2134H198.304V13.7954H197.277C197.247 13.8394 196.998 14.8076 196.969 14.9543C196.925 15.1156 196.705 16.0398 196.646 16.1132L196.03 13.7807H194.988V17.2281H195.634V14.5582C195.678 14.6315 196.162 16.5973 196.235 16.8907C196.25 16.964 196.279 17.1987 196.338 17.2281H196.983C197.057 16.9787 197.247 16.1865 197.321 15.8785C197.438 15.4384 197.555 14.9836 197.673 14.5435V17.2134Z" fill="black"/>
<path fill-rule="evenodd" clip-rule="evenodd" d="M192.829 14.3821V17.228H193.533V14.3675H194.545V13.7953H191.816V14.3675H192.785C192.843 14.3675 192.814 14.3528 192.829 14.3821Z" fill="black"/>
<defs>
<linearGradient id="paint0_linear_544_3852" x1="13.0051" y1="18.8403" x2="30.3481" y2="10.4053" gradientUnits="userSpaceOnUse">
<stop stop-color="#393D48"/>
<stop offset="0.670588" stop-color="#535660"/>
<stop offset="1" stop-color="#393D48"/>
</linearGradient>
</defs>
</svg>
