<svg width="189" height="58" viewBox="0 0 189 58" fill="none" xmlns="http://www.w3.org/2000/svg">
<path d="M15.2815 2.11668L1.39575 17.5198L10.6183 17.1499C11.0674 18.0052 12.2025 20.2682 13.1507 22.4776C16.4613 16.3937 24.3905 13.3436 31.3478 13.8459L29.2287 9.01725L35.9377 1.69859L15.2815 2.11668Z" fill="url(#paint0_linear_86:4653)"/>
<path d="M10.6183 17.1499C11.0674 18.0052 12.2025 20.2682 13.1507 22.4776C16.4613 16.3937 24.3905 13.3436 31.3478 13.8459L29.2287 9.01725L35.9377 1.69859L15.2815 2.11668L1.39575 17.5198L10.6183 17.1499ZM10.6183 17.1499C10.9074 14.0028 14.5599 7.58537 26.8566 7.0922" stroke="#4B4D5A"/>
<path d="M26.8567 7.09223L23.8004 7.39368C24.5726 9.05671 26.1239 12.4945 26.8567 14.0055C27.8634 13.9062 29.1506 13.749 29.63 13.7017L26.8567 7.09223Z" fill="#636670" stroke="#636670"/>
<path d="M22.5598 7.69589L21.6609 7.78455L24.2152 14.5242L25.2939 14.2388L22.5598 7.69589Z" fill="#636670" stroke="#636670"/>
<path d="M7.46772 27.3561L7.03826 23.0805C7.91275 23.9538 9.64384 25.5222 10.0571 26.0212C9.40954 26.8048 8.36663 27.2675 7.46772 27.3561Z" fill="#3F414E"/>
<path d="M4.47014 17.3965L7.03826 23.0805M7.03826 23.0805L7.46772 27.3561C8.36663 27.2675 9.40954 26.8048 10.0571 26.0212C9.64384 25.5222 7.91275 23.9538 7.03826 23.0805Z" stroke="#444753"/>
<ellipse rx="1.08393" ry="1.07429" transform="matrix(0.995171 -0.0981545 0.0999408 0.994993 6.53555 21.6907)" fill="#393C49"/>
<path d="M114.148 47.2883C114.148 44.4238 114.148 41.9531 114.148 39.3034C112.666 39.9837 111.438 40.7715 110.101 41.0937C105.295 42.2038 100.923 38.7305 100.417 33.467C100.308 32.4644 100.344 31.426 100.381 30.4234C100.525 27.3798 101.826 25.0524 104.753 23.7992C108.005 22.4027 111.149 22.904 113.75 25.1956C112.919 26.0908 112.088 26.986 111.293 27.8453C111.04 27.7737 110.896 27.7379 110.823 27.7021C107.86 25.8402 105.981 26.6995 105.403 30.2444C104.825 33.825 106.27 36.3673 109.27 37.1192C111.618 37.6921 114.112 35.8302 114.112 33.4311C114.148 29.4208 114.039 25.4463 114.148 21.4359C114.22 19.7172 113.353 19.6814 112.052 19.6814C96.7672 19.7172 81.4824 19.6814 66.1615 19.6814C62.7288 19.6814 59.3322 19.6814 55.6465 19.6814C56.1885 18.4282 56.586 17.3898 57.128 16.3872C57.2726 16.1008 57.7423 15.8859 58.1036 15.8143C58.5011 15.7069 58.9347 15.7785 59.3683 15.7785C97.0562 15.7785 134.744 15.7785 172.432 15.7785C173.082 15.7785 173.733 15.7785 174.564 15.7785C174.564 17.0317 174.564 18.1776 174.564 19.6814C171.926 19.6814 169.216 19.6814 166.325 19.6814C166.325 21.2569 166.325 22.4743 166.325 23.7276C166.325 29.8863 166.289 36.0092 166.361 42.1679C166.361 43.2421 166.036 43.9225 165.097 44.4596C163.651 45.2831 162.242 46.2499 160.58 47.2883C160.544 46.4289 160.472 45.7844 160.472 45.1399C160.472 39.8405 160.435 34.5053 160.508 29.206C160.508 27.8811 160.146 27.344 158.773 27.4515C157.581 27.5589 156.388 27.4873 155.268 27.4873C155.63 29.9937 156.28 32.3211 156.208 34.6486C156.136 36.797 155.521 39.017 154.69 40.9863C153.425 43.8867 150.932 45.4621 147.716 45.6412C144.536 45.7844 142.188 44.2089 140.598 41.5592C138.394 37.9428 137.671 33.8966 137.31 29.7789C136.948 25.2673 137.021 25.2672 141.429 24.1931C141.61 24.1572 141.79 24.1214 142.224 24.0856C142.441 26.2698 142.621 28.4182 142.91 30.5666C143.2 32.7508 143.452 34.9708 144.031 37.0834C144.428 38.4799 145.187 39.8763 146.09 40.9863C147.463 42.6334 149.884 42.1679 150.535 40.127C151.763 36.2957 150.643 32.6792 148.8 29.3134C148.583 28.9195 147.03 29.2776 145.91 29.2776C146.271 28.1318 146.524 26.9502 147.03 25.8402C147.21 25.4105 147.897 25.0166 148.403 24.9808C151.799 24.6227 155.196 24.1572 158.593 24.0856C160.58 24.0498 160.472 23.083 160.508 21.7224C160.544 20.3618 160.291 19.6814 158.665 19.7172C146.307 19.753 133.985 19.753 121.627 19.7172C120.327 19.7172 119.748 20.0753 119.857 21.4359C119.929 22.725 119.893 24.014 119.893 25.3747C121.808 24.6227 123.506 23.6918 125.277 23.2979C128.312 22.6176 130.769 24.0856 131.781 27.0218C133.01 30.6382 132.684 34.3263 131.926 37.9786C131.853 38.3366 131.564 38.7663 131.275 39.017C129.649 40.3418 127.987 41.595 126.253 42.9915C126.614 40.0554 127.048 37.3341 127.228 34.577C127.337 33.1089 127.156 31.5692 126.722 30.1727C126.072 28.0602 123.976 27.5589 122.278 28.9911C120.832 30.2086 119.785 31.605 119.893 33.7176C120.038 36.6179 120.001 39.5541 119.893 42.4902C119.857 43.1705 119.351 44.0299 118.809 44.4596C117.4 45.3905 115.882 46.2141 114.148 47.2883Z" fill="#4B4B4D"/>
<path d="M61.464 47.4314C61.464 45.0682 61.464 42.6334 61.464 40.1985C61.464 37.7995 61.5001 35.4362 61.3917 33.0372C61.2833 30.5666 60.0186 29.4566 57.5977 29.4924C54.9599 29.5282 53.2977 30.8888 53.2616 33.252C53.2254 37.6563 53.2254 42.0963 53.2616 46.5005C53.2616 46.8585 53.37 47.1808 53.4061 47.5747C54.1288 47.6463 54.7792 47.7179 55.3935 47.7895C56.1884 50.296 55.9355 50.654 53.4422 50.654C51.0213 50.654 48.6364 50.654 46.2154 50.654C43.5415 50.654 43.5415 50.654 43.8306 47.9685C43.939 47.8969 44.0112 47.7895 44.1196 47.7537C46.5406 47.4672 46.5406 47.4673 46.5406 45.0324C46.5406 37.0475 46.5045 29.0627 46.5768 21.042C46.5768 19.7172 46.3238 18.8936 44.8062 18.7504C44.4087 18.7146 43.7944 17.9268 43.8306 17.4614C43.8306 16.9243 44.2642 15.9933 44.6978 15.8859C47.4078 15.1697 50.1902 14.6684 53.1893 14.0239C53.1893 19.1443 53.1893 24.1214 53.1893 29.4566C53.6952 29.0627 53.912 28.9553 53.9842 28.812C55.8994 24.8017 59.3321 24.372 63.1623 25.1956C66.2337 25.8401 68.0404 28.4898 68.1127 32.4285C68.185 36.6179 68.1488 40.7714 68.1488 44.9608C68.1488 47.5747 68.1488 47.5747 70.6421 47.7895C71.4732 50.3318 71.2564 50.654 68.6186 50.654C66.0169 50.654 63.4514 50.654 60.8497 50.654C59.8741 50.654 58.9708 50.7973 58.9346 49.2934C58.8985 47.8253 59.585 47.5389 60.7775 47.6463C60.922 47.6821 61.1027 47.5747 61.464 47.4314Z" fill="#FF008D"/>
<path d="M33.894 19.8604C34.0386 19.0368 34.147 18.643 34.147 18.2491C34.1108 17.1749 34.6528 16.9959 35.5923 16.9601C39.1696 16.8168 39.1696 16.781 39.1696 20.2185C39.1696 21.9014 39.0973 23.5485 39.2057 25.2314C39.2419 26.3414 38.8083 26.7711 37.7242 26.6636C37.4352 26.6278 37.11 26.6636 36.8209 26.6636C34.3638 26.6636 34.3638 26.6636 34.1108 24.2646C33.8579 21.9014 32.8823 20.5049 30.5697 20.111C28.9075 19.7888 27.1008 19.7888 25.4025 20.0394C23.2345 20.3617 21.8252 22.152 21.6807 24.3004C21.5 26.4488 22.4756 27.9885 24.716 28.812C26.1613 29.3491 27.7151 29.6714 29.2327 30.0653C30.4613 30.3875 31.6898 30.674 32.8823 31.0678C37.9049 32.8582 40.5066 36.9043 39.8562 41.8456C39.1696 47.0018 35.4117 50.5824 30.1361 51.0479C26.7395 51.3702 23.6319 50.9405 21.3916 47.8969C20.416 50.7973 20.416 50.7615 17.3085 50.6182C16.2967 50.5824 15.9354 50.2602 15.9354 49.2576C15.9715 47.0018 16.0076 44.7101 15.9354 42.4543C15.8992 41.3443 16.3328 40.9146 17.4169 40.9863C17.7059 41.0221 18.0311 40.9863 18.3202 40.9863C21.3916 40.9505 20.9941 41.1653 21.0664 43.4211C21.1387 45.4621 22.2227 46.966 24.2101 47.2882C26.3059 47.6105 28.51 47.7537 30.5697 47.4314C32.81 47.1092 34.0386 45.1398 34.0747 42.8482C34.1108 40.4134 33.2797 39.1243 30.7865 38.3366C28.6546 37.6563 26.4865 37.2982 24.3546 36.6537C17.9589 34.7917 14.9597 29.5998 16.5858 23.4052C17.6698 19.3233 20.5244 17.2107 24.5353 16.602C27.968 16.1007 31.2924 16.3513 33.894 19.8604Z" fill="#FF008D"/>
<path d="M93.8042 42.9557C94.4908 43.3853 95.1051 43.815 96.1891 44.4953C94.8521 46.1424 93.8404 47.897 92.395 49.0786C87.264 53.1963 78.8808 51.406 75.954 45.5337C73.4969 40.5924 73.4969 35.4721 75.8817 30.5308C78.1943 25.7327 83.759 23.7275 89.3236 25.4821C93.9488 26.9501 97.1286 31.9988 96.3336 36.9043C96.2614 37.334 95.3941 37.9069 94.8883 37.9069C91.0219 37.9785 87.1917 38.0502 83.3253 37.9069C81.5909 37.8353 81.1573 38.5156 81.2296 40.0911C81.4464 43.6718 82.7111 45.8202 85.3127 46.6079C88.3841 47.5389 91.0942 46.5363 93.2622 43.6002C93.4068 43.3495 93.5874 43.2063 93.8042 42.9557ZM85.4573 35.2214C86.3967 35.2214 87.3724 35.2931 88.3119 35.1856C88.7455 35.114 89.5043 34.5769 89.4681 34.3263C89.2875 32.7508 89.1429 31.1395 88.5287 29.7072C87.806 28.0243 85.7825 27.4872 84.048 28.1675C82.1691 28.8837 80.6514 31.9989 81.3018 34.3979C81.7716 36.1524 83.4337 34.8992 84.5178 35.2572C84.843 35.2931 85.1682 35.2214 85.4573 35.2214Z" fill="#FF008D"/>
<path d="M113.461 49.723C116.28 52.0147 119.098 53.984 122.675 54.2705C123.506 54.3421 124.518 54.2347 125.241 53.8408C126.578 53.1247 126.975 51.3343 126.325 49.9021C125.747 48.6488 124.338 48.1475 122.748 48.7205C121.483 49.2217 120.29 49.8663 118.845 50.5824C118.845 49.2576 118.809 48.1475 118.881 47.0375C118.917 46.7153 119.206 46.1782 119.496 46.1066C121.591 45.6411 123.687 44.9608 125.783 44.925C127.843 44.8892 130.3 47.2882 130.625 49.1859C131.022 51.7282 130.625 54.0914 128.312 55.7027C126.108 57.2424 123.651 57.6721 120.941 57.2066C117.075 56.5621 113.57 55.2014 110.426 53.0889C111.438 51.9788 112.377 50.9405 113.461 49.723Z" fill="#4B4B4D"/>
<path d="M117.833 5.46619C119.17 6.79103 120.363 7.97265 121.736 9.29749C120.327 10.4433 118.953 11.5533 117.616 12.6633C116.713 11.8398 115.485 10.7298 114.111 9.44071C115.376 8.08007 116.532 6.82684 117.833 5.46619Z" fill="#4B4B4D"/>
<circle cx="182.5" cy="15.5" r="6" stroke="#4B4B4D"/>
<path d="M181.425 14V14.465H180.5V17.475H179.93V14.465H179V14H181.425Z" fill="#4B4B4D"/>
<path d="M185.662 14V17.475H185.092V15.095L184.032 17.475H183.637L182.572 15.095V17.475H182.002V14H182.617L183.837 16.725L185.052 14H185.662Z" fill="#4B4B4D"/>
<defs>
<linearGradient id="paint0_linear_86:4653" x1="10.8331" y1="19.2877" x2="22.8496" y2="12.789" gradientUnits="userSpaceOnUse">
<stop stop-color="#3B3E4B"/>
<stop offset="1" stop-color="#525460"/>
</linearGradient>
</defs>
</svg>
