<svg width="144" height="44" viewBox="0 0 144 44" fill="none" xmlns="http://www.w3.org/2000/svg">
<path d="M12.4813 1.51871L2.04866 13.0914L8.9778 12.8135C9.31517 13.4561 10.168 15.1563 10.8804 16.8163C13.3678 12.2454 19.3252 9.95379 24.5523 10.3312L22.9602 6.70327L28.0008 1.20459L12.4813 1.51871Z" fill="#F2F2F2"/>
<path d="M8.9778 12.8135C9.31517 13.4561 10.168 15.1563 10.8804 16.8163C13.3678 12.2454 19.3252 9.95379 24.5523 10.3312L22.9602 6.70327L28.0008 1.20459L12.4813 1.51871L2.04866 13.0914L8.9778 12.8135ZM8.9778 12.8135C9.19501 10.4491 11.9391 5.62747 21.178 5.25694" stroke="#E0E0E0"/>
<path d="M21.1791 5.25698L18.8828 5.48346C19.463 6.73293 20.6285 9.31586 21.1791 10.4511C21.9355 10.3765 22.9025 10.2584 23.2627 10.2228L21.1791 5.25698Z" fill="#E0E0E0" stroke="#E0E0E0"/>
<path d="M17.9508 5.71055L17.2754 5.77716L19.1945 10.8408L20.0049 10.6264L17.9508 5.71055Z" fill="#636670" stroke="#E0E0E0"/>
<path d="M6.61153 20.4817L6.28886 17.2693C6.94589 17.9255 8.24649 19.1039 8.55698 19.4788C8.07046 20.0675 7.2869 20.4151 6.61153 20.4817Z" fill="#E0E0E0"/>
<path d="M4.35938 12.9988L6.28886 17.2693M6.28886 17.2693L6.61153 20.4817C7.2869 20.4151 8.07046 20.0675 8.55698 19.4788C8.24649 19.1039 6.94589 17.9255 6.28886 17.2693Z" stroke="#BDBDBD"/>
<ellipse rx="0.81438" ry="0.807141" transform="matrix(0.995171 -0.0981545 0.0999408 0.994993 5.91065 16.2252)" fill="#F2F2F2"/>
<path d="M86.7618 35.4571C86.7618 33.305 86.7618 31.4487 86.7618 29.4579C85.6488 29.9691 84.7257 30.5609 83.7212 30.8031C80.1105 31.637 76.8255 29.0275 76.4455 25.0729C76.364 24.3196 76.3912 23.5394 76.4183 22.7862C76.5269 20.4995 77.5042 18.7508 79.7033 17.8092C82.1466 16.7601 84.5085 17.1367 86.4632 18.8584C85.8388 19.531 85.2144 20.2035 84.6171 20.8492C84.4271 20.7954 84.3185 20.7685 84.2642 20.7416C82.038 19.3427 80.6263 19.9883 80.1919 22.6517C79.7576 25.3419 80.8435 27.2519 83.0968 27.8169C84.8615 28.2473 86.7347 26.8484 86.7347 25.046C86.7618 22.0329 86.6804 19.0468 86.7618 16.0337C86.8161 14.7424 86.1646 14.7155 85.1872 14.7155C73.7035 14.7424 62.2197 14.7155 50.7088 14.7155C48.1297 14.7155 45.5777 14.7155 42.8086 14.7155C43.2158 13.7739 43.5145 12.9937 43.9217 12.2405C44.0303 12.0253 44.3832 11.8638 44.6547 11.81C44.9533 11.7293 45.2791 11.7831 45.6049 11.7831C73.9207 11.7831 102.236 11.7831 130.552 11.7831C131.041 11.7831 131.53 11.7831 132.154 11.7831C132.154 12.7247 132.154 13.5856 132.154 14.7155C130.172 14.7155 128.136 14.7155 125.964 14.7155C125.964 15.8992 125.964 16.8139 125.964 17.7554C125.964 22.3826 125.937 26.9829 125.991 31.6101C125.991 32.4172 125.747 32.9283 125.041 33.3319C123.955 33.9506 122.896 34.677 121.648 35.4571C121.62 34.8115 121.566 34.3273 121.566 33.843C121.566 29.8615 121.539 25.853 121.593 21.8715C121.593 20.8761 121.322 20.4726 120.29 20.5533C119.394 20.634 118.498 20.5802 117.657 20.5802C117.928 22.4633 118.417 24.212 118.363 25.9606C118.308 27.5748 117.847 29.2427 117.222 30.7223C116.272 32.9014 114.399 34.0851 111.983 34.2196C109.594 34.3272 107.829 33.1436 106.634 31.1528C104.978 28.4356 104.435 25.3957 104.164 22.3019C103.892 18.9122 103.947 18.9122 107.259 18.1052C107.395 18.0783 107.53 18.0514 107.856 18.0245C108.019 19.6655 108.155 21.2796 108.372 22.8938C108.589 24.5348 108.779 26.2028 109.214 27.79C109.512 28.8392 110.082 29.8884 110.761 30.7223C111.793 31.9598 113.612 31.6101 114.1 30.0767C115.023 27.1981 114.182 24.481 112.797 21.9522C112.634 21.6563 111.467 21.9253 110.625 21.9253C110.897 21.0644 111.087 20.1766 111.467 19.3427C111.603 19.0198 112.118 18.7239 112.499 18.697C115.05 18.428 117.602 18.0783 120.154 18.0245C121.648 17.9976 121.566 17.2712 121.593 16.2489C121.62 15.2266 121.43 14.7155 120.209 14.7424C110.924 14.7693 101.666 14.7693 92.3816 14.7424C91.4042 14.7424 90.9699 15.0114 91.0513 16.0337C91.1056 17.0022 91.0784 17.9707 91.0784 18.9929C92.5173 18.428 93.7933 17.7285 95.1236 17.4326C97.404 16.9215 99.2501 18.0245 100.01 20.2305C100.933 22.9476 100.689 25.7185 100.119 28.4626C100.065 28.7316 99.8474 29.0544 99.6302 29.2427C98.4085 30.2381 97.1597 31.1797 95.8566 32.2289C96.128 30.0229 96.4538 27.9783 96.5896 25.9068C96.671 24.8038 96.5353 23.647 96.2095 22.5979C95.7208 21.0106 94.1462 20.634 92.8702 21.7101C91.7843 22.6248 90.997 23.6739 91.0784 25.2612C91.187 27.4403 91.1599 29.6463 91.0784 31.8522C91.0513 32.3634 90.6712 33.009 90.264 33.3319C89.2052 34.0313 88.065 34.6501 86.7618 35.4571Z" fill="#F2F2F2"/>
<path d="M47.1785 35.5648C47.1785 33.7892 47.1785 31.9599 47.1785 30.1305C47.1785 28.3281 47.2057 26.5525 47.1242 24.7501C47.0428 22.8938 46.0926 22.0598 44.2737 22.0868C42.2918 22.1137 41.043 23.1359 41.0159 24.9115C40.9887 28.2205 40.9887 31.5564 41.0159 34.8653C41.0159 35.1344 41.0973 35.3765 41.1244 35.6724C41.6674 35.7262 42.1561 35.78 42.6176 35.8338C43.2149 37.717 43.0248 37.986 41.1516 37.986C39.3327 37.986 37.5409 37.986 35.7219 37.986C33.7129 37.986 33.7129 37.986 33.9301 35.9683C34.0116 35.9145 34.0659 35.8338 34.1473 35.8069C35.9663 35.5917 35.9663 35.5917 35.9663 33.7623C35.9663 27.7631 35.9391 21.7639 35.9934 15.7378C35.9934 14.7424 35.8034 14.1237 34.6631 14.0161C34.3645 13.9892 33.903 13.3973 33.9301 13.0476C33.9301 12.6441 34.2559 11.9446 34.5817 11.8639C36.6178 11.3258 38.7082 10.9492 40.9616 10.465C40.9616 14.312 40.9616 18.0514 40.9616 22.0599C41.3416 21.7639 41.5045 21.6832 41.5588 21.5756C42.9977 18.5626 45.5768 18.2397 48.4545 18.8585C50.7621 19.3427 52.1196 21.3335 52.1738 24.2927C52.2281 27.4403 52.201 30.561 52.201 33.7085C52.201 35.6724 52.201 35.6724 54.0742 35.8338C54.6986 37.7439 54.5358 37.986 52.5539 37.986C50.5992 37.986 48.6717 37.986 46.717 37.986C45.984 37.986 45.3053 38.0936 45.2782 36.9637C45.251 35.8607 45.7668 35.6455 46.6627 35.7262C46.7713 35.7531 46.9071 35.6724 47.1785 35.5648Z" fill="#EC498A"/>
<path d="M26.467 14.85C26.5756 14.2312 26.657 13.9353 26.657 13.6394C26.6299 12.8323 27.0371 12.6978 27.7429 12.6709C30.4306 12.5633 30.4306 12.5364 30.4306 15.119C30.4306 16.3834 30.3763 17.6209 30.4578 18.8853C30.4849 19.7193 30.1592 20.0421 29.3447 19.9614C29.1275 19.9345 28.8832 19.9614 28.666 19.9614C26.8199 19.9614 26.8199 19.9614 26.6299 18.1589C26.4398 16.3834 25.7068 15.3342 23.9693 15.0383C22.7205 14.7962 21.3631 14.7962 20.0871 14.9845C18.4582 15.2266 17.3994 16.5717 17.2908 18.1859C17.1551 19.8 17.8881 20.9568 19.5713 21.5755C20.6572 21.9791 21.8246 22.2212 22.9648 22.5171C23.8879 22.7592 24.8109 22.9745 25.7068 23.2704C29.4804 24.6155 31.4351 27.6555 30.9465 31.368C30.4306 35.2419 27.6072 37.9321 23.6435 38.2819C21.0916 38.524 18.7568 38.2012 17.0736 35.9145C16.3406 38.0935 16.3406 38.0666 14.0059 37.959C13.2457 37.9321 12.9742 37.69 12.9742 36.9367C13.0014 35.2419 13.0285 33.5202 12.9742 31.8253C12.9471 30.9913 13.2728 30.6685 14.0873 30.7223C14.3045 30.7492 14.5488 30.7223 14.766 30.7223C17.0736 30.6954 16.775 30.8568 16.8293 32.5517C16.8836 34.0851 17.698 35.215 19.1912 35.4571C20.7658 35.6992 22.4219 35.8069 23.9693 35.5647C25.6525 35.3226 26.5756 33.843 26.6027 32.1212C26.6299 30.2919 26.0054 29.3234 24.1322 28.7315C22.5305 28.2204 20.9015 27.9514 19.2998 27.4671C14.4945 26.0682 12.2412 22.1674 13.4629 17.5133C14.2773 14.4464 16.4221 12.8592 19.4355 12.4019C22.0146 12.0252 24.5123 12.2135 26.467 14.85Z" fill="#EC498A"/>
<path d="M71.4785 32.202C71.9943 32.5248 72.4559 32.8476 73.2703 33.3588C72.2658 34.5963 71.5057 35.9145 70.4197 36.8023C66.5647 39.896 60.2662 38.5509 58.0672 34.1389C56.2211 30.4264 56.2211 26.5794 58.0129 22.8669C59.7504 19.262 63.9313 17.7554 68.1121 19.0736C71.5871 20.1766 73.9762 23.9699 73.3789 27.6555C73.3246 27.9783 72.6731 28.4087 72.293 28.4087C69.3881 28.4625 66.5104 28.5163 63.6055 28.4087C62.3024 28.3549 61.9766 28.8661 62.0309 30.0498C62.1938 32.74 63.144 34.3541 65.0986 34.946C67.4063 35.6455 69.4424 34.8922 71.0713 32.6862C71.1799 32.4979 71.3156 32.3903 71.4785 32.202ZM65.2072 26.3911C65.9131 26.3911 66.6461 26.4449 67.352 26.3642C67.6777 26.3104 68.2479 25.9068 68.2207 25.7185C68.085 24.5348 67.9764 23.3242 67.5149 22.2481C66.9719 20.9837 65.4516 20.5802 64.1485 21.0913C62.7367 21.6294 61.5965 23.9699 62.0852 25.7723C62.4381 27.0905 63.6869 26.1489 64.5014 26.418C64.7457 26.4449 64.9901 26.3911 65.2072 26.3911Z" fill="#EC498A"/>
<path d="M86.2453 37.2865C88.3629 39.0083 90.4805 40.4879 93.1681 40.7031C93.7926 40.7569 94.5527 40.6762 95.0957 40.3803C96.1002 39.8423 96.3988 38.4971 95.9101 37.4211C95.4758 36.4795 94.417 36.1028 93.2225 36.5333C92.2723 36.9099 91.3764 37.3941 90.2904 37.9322C90.2904 36.9368 90.2633 36.1028 90.3176 35.2689C90.3447 35.0267 90.5619 34.6232 90.7791 34.5694C92.3537 34.2197 93.9283 33.7085 95.5029 33.6816C97.0504 33.6547 98.8965 35.4572 99.1408 36.883C99.4394 38.7931 99.1408 40.5686 97.4033 41.7792C95.7473 42.936 93.9012 43.2588 91.865 42.9091C88.9602 42.4249 86.3268 41.4026 83.9648 39.8154C84.725 38.9814 85.4309 38.2012 86.2453 37.2865Z" fill="#F2F2F2"/>
<path d="M89.5307 4.03528C90.5352 5.03066 91.4311 5.91844 92.4627 6.91382C91.4039 7.7747 90.3723 8.60867 89.3678 9.44264C88.6891 8.82388 87.766 7.98991 86.7344 7.02143C87.6846 5.99915 88.5533 5.05756 89.5307 4.03528Z" fill="#F2F2F2"/>
<circle cx="138.118" cy="11.574" r="4.3836" stroke="#F2F2F2"/>
<path d="M137.31 10.447V10.7964H136.615V13.0579H136.187V10.7964H135.488V10.447H137.31Z" fill="#F2F2F2"/>
<path d="M140.494 10.447V13.0579H140.066V11.2697L139.269 13.0579H138.972L138.172 11.2697V13.0579H137.744V10.447H138.206L139.123 12.4944L140.035 10.447H140.494Z" fill="#F2F2F2"/>
</svg>
